<?xml version="1.0" encoding="iso-8859-1"?>
<!-- Generator: Adobe Illustrator 19.0.0, SVG Export Plug-In . SVG Version: 6.00 Build 0)  -->
<svg version="1.1" id="&#x56FE;&#x5C42;_1" xmlns="http://www.w3.org/2000/svg" xmlns:xlink="http://www.w3.org/1999/xlink" x="0px"
	 y="0px" viewBox="0 0 48 48" style="enable-background:new 0 0 48 48;" xml:space="preserve">
<g id="XMLID_720_">
	<path id="XMLID_18_" style="fill:#A6A6A6;" d="M24,2.501c3.735,0,10.002,0.624,10.002,4.806c0,1.058-0.507,2.276-1.428,3.43
		l-1.045,1.309l1.417,0.895C39.755,17.241,44.5,25.644,44.5,30.495c0,9.115-8.047,15.004-20.5,15.004
		c-12.453,0-20.5-5.89-20.5-15.004c0-4.851,4.746-13.253,11.555-17.555l1.417-0.895l-1.046-1.309
		c-0.921-1.153-1.429-2.371-1.429-3.43C13.997,3.125,20.264,2.501,24,2.501 M24,1.001c-4.295,0-11.503,0.819-11.503,6.306
		c0,1.445,0.646,2.975,1.757,4.366C6.919,16.305,2,25.187,2,30.495c0,10.026,8.635,16.504,22,16.504c13.364,0,22-6.478,22-16.504
		c0-5.308-4.92-14.191-12.254-18.823c1.11-1.39,1.756-2.921,1.756-4.366C35.502,4.951,34.008,1.001,24,1.001L24,1.001z"/>
</g>
<g id="XMLID_719_">
	<polygon id="XMLID_894_" style="fill:#A6A6A6;" points="25,27 23,27 23,36 25,36 25,27 	"/>
</g>
<g id="XMLID_718_">
	<polygon id="XMLID_893_" style="fill:#A6A6A6;" points="27.587,21.046 23.341,25.293 24.755,26.707 29.001,22.46 27.587,21.046 	
		"/>
</g>
<g id="XMLID_717_">
	<polygon id="XMLID_804_" style="fill:#A6A6A6;" points="20.414,21.046 19,22.46 23.247,26.707 24.661,25.293 20.414,21.046 	"/>
</g>
<g id="XMLID_716_">
	<polygon id="XMLID_802_" style="fill:#A6A6A6;" points="29.001,30 19,30 19,32 29.001,32 29.001,30 	"/>
</g>
<g id="XMLID_715_">
	<polygon id="XMLID_796_" style="fill:#A6A6A6;" points="29.001,26 19,26 19,28 29.001,28 29.001,26 	"/>
</g>
</svg>
