<?xml version="1.0" encoding="utf-8"?>
<!DOCTYPE svg PUBLIC "-//W3C//DTD SVG 1.1//EN" "http://www.w3.org/Graphics/SVG/1.1/DTD/svg11.dtd">
<svg style="width:20px;height:20px;" version="1.1" id="图形" xmlns="http://www.w3.org/2000/svg" xmlns:xlink="http://www.w3.org/1999/xlink" x="0px" y="0px" width="1026px" height="1024px" viewBox="0 0 1026 1024" enable-background="new 0 0 1026 1024" xml:space="preserve">
  <path class="svgpath" data-index="path_0" fill="#272636" d="M857.659511 114.135127c-21.308311-12.784987 12.784987-53.270777 42.616622-80.971581 44.747453-38.35496 87.364074-42.616622 89.494906-17.046649 0 31.962466-42.616622 38.35496-53.270777 53.270777C906.668626 109.873465 881.098653 129.050945 857.659511 114.135127z" />
<path class="svgpath" data-index="path_1" fill="#272636" d="M282.335119 555.217161c-36.224128 0-63.924933 27.700804-63.924933 63.924933s27.700804 63.924933 63.924933 63.924933 63.924933-27.700804 63.924933-63.924933S318.559247 555.217161 282.335119 555.217161z" />
<path class="svgpath" data-index="path_2" fill="#272636" d="M708.501336 555.217161c-36.224128 0-63.924933 27.700804-63.924933 63.924933s27.700804 63.924933 63.924933 63.924933 63.924933-27.700804 63.924933-63.924933S744.725464 555.217161 708.501336 555.217161z" />
<path class="svgpath" data-index="path_3" fill="#272636" d="M974.855221 499.815553c-19.17748-14.915818-51.139946-21.308311-74.579088-34.093297l0-2.130831c-87.364074-49.009115-213.083108-89.494906-364.372115-119.326541-151.289007-29.831635-351.587129-40.485791-404.857906-42.616622l0 2.130831c-36.224128 6.392493-112.934047 27.700804-127.849865 57.532439-4.261662 6.392493-4.261662 14.915818 0 21.308311 2.130831 4.261662 4.261662 8.523324 10.654155 14.915818l0 0 0 0c0 0 0 0 2.130831 2.130831 6.392493 6.392493 14.915818 10.654155 25.569973 17.046649 21.308311 10.654155 51.139946 23.439142 87.364074 36.224128-49.009115 61.794101-76.709919 134.242358-80.971581 206.690615 0 4.261662 0 8.523324 0 12.784987l0 2.130831c0 4.261662 0 8.523324 0 10.654155l0 0 0 0c0 4.261662 0 8.523324 0 12.784987l0 2.130831 0 0c0 4.261662 0 8.523324 0 10.654155l0 0 0 0c0 4.261662 0 8.523324 2.130831 12.784987l0 0 0 0c0 4.261662 0 8.523324 2.130831 12.784987 2.130831 8.523324 2.130831 17.046649 4.261662 25.569973 17.046649 74.579088 61.794101 134.242358 129.980696 174.728149 74.579088 44.747453 174.728149 66.055764 300.447183 66.055764 144.896514 0 255.69973-29.831635 330.278818-87.364074 34.093297-27.700804 61.794101-59.66327 80.971581-98.01823 17.046649-38.35496 27.700804-80.971581 27.700804-125.719034l0 0 0 0c0-4.261662 0-8.523324 0-14.915818l0-2.130831 0 0c0-4.261662 0-10.654155 0-14.915818-2.130831-21.308311-4.261662-40.485791-8.523324-61.794101 14.915818 0 27.700804 2.130831 38.35496 2.130831 36.224128 0 57.532439-4.261662 63.924933-14.915818l0 0 0 0 0 0 0 0c0-2.130831 2.130831-2.130831 2.130831-4.261662C1032.38766 559.478824 1017.471843 536.039682 974.855221 499.815553zM175.793564 619.142094c0-59.66327 46.878284-106.541554 106.541554-106.541554s106.541554 46.878284 106.541554 106.541554-46.878284 106.541554-106.541554 106.541554S175.793564 678.805364 175.793564 619.142094zM527.380693 862.056838c-12.784987-6.392493-23.439142-14.915818-31.962466-27.700804-8.523324 12.784987-19.17748 23.439142-31.962466 27.700804-10.654155 4.261662-21.308311 6.392493-29.831635 6.392493-42.616622 0-85.233243-34.093297-89.494906-38.35496l27.700804-31.962466c12.784987 10.654155 53.270777 36.224128 74.579088 25.569973 17.046649-8.523324 27.700804-42.616622 27.700804-93.756568l42.616622 0c0 51.139946 10.654155 85.233243 27.700804 93.756568 21.308311 10.654155 59.66327-12.784987 74.579088-25.569973l27.700804 31.962466C640.314741 836.486865 578.520639 885.49598 527.380693 862.056838zM708.501336 725.683648c-59.66327 0-106.541554-46.878284-106.541554-106.541554s46.878284-106.541554 106.541554-106.541554 106.541554 46.878284 106.541554 106.541554C815.04289 678.805364 768.164606 725.683648 708.501336 725.683648z" />
<path class="svgpath" data-index="path_4" fill="#272636" d="M548.689004 303.779093c149.158176 27.700804 268.484717 66.055764 360.110453 112.934047 4.261662-59.66327 0-159.812331-63.924933-242.914744-44.747453 68.186595-63.924933 115.064879-63.924933 115.064879l-4.261662-2.130831c6.392493 4.261662 12.784987 8.523324 17.046649 14.915818l-6.392493 8.523324 2.130831 10.654155-8.523324 4.261662 0 14.915818c0 0-29.831635-34.093297-93.756568-46.878284l6.392493-8.523324 0-10.654155 6.392493-6.392493 0-12.784987c0 0 19.17748 4.261662 42.616622 14.915818 6.392493-14.915818 27.700804-63.924933 72.448257-129.980696-46.878284-44.747453-112.934047-80.971581-213.083108-98.01823-287.662196-49.009115-409.119568 132.111527-449.605359 217.344771C222.671848 265.424134 403.79249 276.078289 548.689004 303.779093z" />

</svg>
