<?xml version="1.0" encoding="iso-8859-1"?>
<!-- Generator: Adobe Illustrator 19.0.0, SVG Export Plug-In . SVG Version: 6.00 Build 0)  -->
<svg version="1.1" id="&#x56FE;&#x5C42;_1" xmlns="http://www.w3.org/2000/svg" xmlns:xlink="http://www.w3.org/1999/xlink" x="0px"
	 y="0px" viewBox="0 0 40 40" style="enable-background:new 0 0 40 40;" xml:space="preserve">
<g id="XMLID_1_">
	<path id="XMLID_4_" style="fill:#FF595F;" d="M39,21H1c-0.552,0-1-0.448-1-1v0c0-0.552,0.448-1,1-1h38c0.552,0,1,0.448,1,1v0
		C40,20.552,39.552,21,39,21z"/>
	<path id="XMLID_5_" style="fill:#FF595F;" d="M1,21.001c-0.256,0-0.512-0.098-0.707-0.293c-0.391-0.391-0.391-1.023,0-1.414
		l13-13.001c0.391-0.391,1.023-0.391,1.414,0s0.391,1.023,0,1.414C14.707,7.707,1.256,21.001,1,21.001z"/>
	<path id="XMLID_7_" style="fill:#FF595F;" d="M14,34c-0.256,0-0.512-0.098-0.707-0.293l-13-12.999
		c-0.391-0.391,1.023-1.805,1.414-1.414l13,12.999c0.391,0.391,0.391,1.023,0,1.414C14.512,33.902,14.256,34,14,34z"/>
</g>
</svg>
