<?xml version="1.0" encoding="iso-8859-1"?>
<!-- Generator: Adobe Illustrator 19.0.0, SVG Export Plug-In . SVG Version: 6.00 Build 0)  -->
<svg version="1.1" id="&#x56FE;&#x5C42;_1" xmlns="http://www.w3.org/2000/svg" xmlns:xlink="http://www.w3.org/1999/xlink" x="0px"
	 y="0px" viewBox="-277 400.89 40 40" style="enable-background:new -277 400.89 40 40;" xml:space="preserve">
<g>
	<path id="XMLID_1_" style="fill:#FF595F;" d="M-265.937,418.921h-8.888c-1.091,0-1.979,0.888-1.979,1.979v17.23
		c0,1.091,0.888,1.979,1.979,1.979h8.888c1.091,0,1.979-0.888,1.979-1.979V420.9C-263.958,419.809-264.846,418.921-265.937,418.921
		L-265.937,418.921z"/>
	<path id="XMLID_3_" style="fill:#FF595F;" d="M-248.862,401.64c-0.533,0-1.043,0.137-1.473,0.396
		c-0.91,0.55-1.459,1.589-1.635,3.089c-0.375,3.206-3.054,6.082-4.578,7.277l-0.052,0.041c-0.167,0.131-0.303,0.239-0.397,0.321
		c-0.796,0.688-1.424,1.925-2.363,3.88l-0.352,0.729c-0.496,1.017-1.853,2.498-2.515,3.162c-0.479,0.009-1.312,0.025-1.903,0.029
		l-1.788,0.012v1.788v14.135v1.858l1.857-0.059c0.003,0,0.005,0,0.008,0c0.225,0,0.289,0.033,0.289,0.033
		c0.013,0.014,0.048,0.081,0.074,0.131l0.056,0.103l0.171,0.305l0.273,0.219c0.463,0.372,1.386,0.776,1.658,0.891l0.334,0.142
		l0.363,0.001c1.072,0.003,6.745,0.017,11.36,0.017c2.967,0,4.901-0.006,5.749-0.017c1.773-0.023,2.698-0.806,3.162-1.459
		c0.794-1.117,0.894-2.522,0.748-3.494c0.907-1.033,1.187-2.561,1.273-3.454c0.078-0.818-0.103-1.475-0.331-1.954
		c0.597-0.615,1.247-1.635,1.336-3.085c0.074-1.215-0.242-2.095-0.57-2.665c0.426-0.561,0.885-1.457,0.911-2.729
		c0.065-3.194-2.717-4.876-5.329-5.087l-0.073-0.006h-0.073l-5.69,0.002h-0.05c-0.137-0.395,0.105-0.817,0.164-0.912
		c0.405-0.516,2.041-2.725,3.157-6.04c0.976-2.896-0.476-5.556-2.16-7.079l-0.326-0.295l-0.425-0.111
		C-248.286,401.678-248.576,401.64-248.862,401.64L-248.862,401.64z"/>
</g>
</svg>
