<?xml version="1.0" encoding="iso-8859-1"?>
<!-- Generator: Adobe Illustrator 19.0.0, SVG Export Plug-In . SVG Version: 6.00 Build 0)  -->
<svg version="1.1" id="&#x56FE;&#x5C42;_1" xmlns="http://www.w3.org/2000/svg" xmlns:xlink="http://www.w3.org/1999/xlink" x="0px"
	 y="0px" viewBox="0 0 48 48" style="enable-background:new 0 0 48 48;" xml:space="preserve">
<g id="XMLID_1155_">
	<path id="XMLID_22_" style="fill:#A6A6A6;" d="M26.928,2.5c1.151,0,2.204,0.38,2.886,1.04l14.547,14.133
		c0.724,0.7,1.139,1.729,1.139,2.822c0,1.102-0.422,2.143-1.19,2.885L28.296,39.791c-3.491,3.438-5.797,5.708-9.671,5.708h-7.29
		c-7.616,0-8.834-2.16-8.834-9.097v-7.944c0-3.599,0.566-4.46,3.458-7.259L24.036,3.546C24.721,2.881,25.775,2.5,26.928,2.5
		 M26.928,1c-1.463,0-2.926,0.489-3.937,1.469L4.91,20.126C1.791,23.146,1,24.359,1,28.459v7.944C1,43.731,2.491,47,11.334,47h7.29
		c4.486,0,7.103-2.575,10.724-6.14l16.035-16.432C46.41,23.436,47,22.002,47,20.495c0-1.497-0.582-2.918-1.596-3.9L30.859,2.464
		C29.852,1.489,28.39,1,26.928,1L26.928,1z"/>
</g>
<g id="XMLID_1087_">
	<path id="XMLID_18_" style="fill:#A6A6A6;" d="M15.001,29c2.206,0,4,1.794,4,4s-1.795,4-4,4c-2.206,0-4.001-1.794-4.001-4
		S12.795,29,15.001,29 M15.001,27C11.688,27,9,29.686,9,33c0,3.313,2.688,6,6.001,6c3.314,0,6-2.687,6-6
		C21.001,29.686,18.315,27,15.001,27L15.001,27z"/>
</g>
</svg>
