<?xml version="1.0" encoding="iso-8859-1"?>
<!-- Generator: Adobe Illustrator 19.0.0, SVG Export Plug-In . SVG Version: 6.00 Build 0)  -->
<svg version="1.1" id="&#x56FE;&#x5C42;_1" xmlns="http://www.w3.org/2000/svg" xmlns:xlink="http://www.w3.org/1999/xlink" x="0px"
	 y="0px" viewBox="-277 400.89 40 40" style="enable-background:new -277 400.89 40 40;" xml:space="preserve">
<g>
	<path id="XMLID_1_" style="fill:#000;" d="M-265.937,420.722c0.099,0,0.179,0.08,0.179,0.179v17.23
		c0,0.099-0.08,0.179-0.179,0.179h-8.888c-0.099,0-0.179-0.08-0.179-0.179v-17.23c0-0.099,0.08-0.179,0.179-0.179H-265.937
		 M-265.937,418.922h-8.888c-1.091,0-1.979,0.888-1.979,1.979v17.23c0,1.091,0.888,1.979,1.979,1.979h8.888
		c1.091,0,1.979-0.888,1.979-1.979v-17.23C-263.958,419.81-264.846,418.922-265.937,418.922L-265.937,418.922z"/>
	<path id="XMLID_3_" style="fill:#000;" d="M-248.862,403.441c0.166,0,0.312,0.03,0.404,0.054
		c0.496,0.449,2.556,2.517,1.661,5.17c-1.137,3.375-2.851,5.482-2.904,5.549c-0.427,0.598-0.934,1.932-0.129,3.14
		c0.32,0.481,0.846,0.648,1.286,0.648c0.062,0,0.123-0.003,0.181-0.01l5.69-0.002c0.152,0.012,3.735,0.333,3.675,3.256
		c-0.028,1.37-0.829,1.991-0.853,2.01l-0.83,0.612l0.761,0.702c0.028,0.025,0.668,0.632,0.585,1.996
		c-0.096,1.557-1.153,2.223-1.163,2.228l-1.214,0.506l0.974,0.865c0.082,0.092,0.48,0.575,0.403,1.378
		c-0.066,0.685-0.317,2.082-1.047,2.64l-0.953,0.364l0.666,0.568c0.17,0.508,0.199,1.714-0.364,2.506
		c-0.328,0.461-0.89,0.691-1.718,0.701c-0.949,0.013-3.176,0.017-5.725,0.017c-4.614,0-10.284-0.014-11.356-0.017
		c-0.527-0.223-1.059-0.498-1.233-0.638c-0.143-0.256-0.528-1.188-1.948-1.188c-0.035,0-0.07,0.001-0.107,0.002v-14.135
		c0.886-0.006,2.309-0.037,2.309-0.037l0.288-0.006l0.223-0.181c0.097-0.079,2.378-2.285,3.203-3.977
		c0.79-1.62,1.603-3.456,2.274-4.036c0.088-0.076,0.219-0.178,0.382-0.306c1.378-1.08,4.773-4.359,5.256-8.484
		c0.106-0.906,0.374-1.514,0.776-1.756C-249.231,403.474-249.036,403.441-248.862,403.441 M-248.862,401.641
		c-0.533,0-1.043,0.137-1.473,0.396c-0.91,0.55-1.459,1.589-1.635,3.089c-0.375,3.206-3.054,6.082-4.578,7.277l-0.052,0.041
		c-0.167,0.131-0.303,0.239-0.397,0.321c-0.796,0.688-1.424,1.925-2.363,3.88l-0.352,0.729c-0.496,1.017-1.853,2.498-2.515,3.162
		c-0.479,0.009-1.312,0.025-1.903,0.029l-1.788,0.012v1.788v14.135v1.858l1.857-0.059c0.003,0,0.005,0,0.008,0
		c0.225,0,0.289,0.033,0.289,0.033c0.013,0.014,0.048,0.081,0.074,0.131l0.056,0.103l0.171,0.305l0.273,0.219
		c0.463,0.372,1.386,0.776,1.658,0.891l0.334,0.142l0.363,0.001c1.072,0.003,6.745,0.017,11.36,0.017
		c2.967,0,4.901-0.006,5.749-0.017c1.773-0.023,2.698-0.806,3.162-1.459c0.794-1.117,0.894-2.522,0.748-3.494
		c0.907-1.033,1.187-2.561,1.273-3.454c0.078-0.818-0.103-1.475-0.331-1.954c0.597-0.615,1.247-1.635,1.336-3.085
		c0.074-1.215-0.242-2.095-0.57-2.665c0.426-0.561,0.885-1.457,0.911-2.729c0.065-3.194-2.717-4.876-5.329-5.087l-0.073-0.006
		l-0.073,0l-5.69,0.002h-0.05c-0.137-0.395,0.105-0.817,0.164-0.912c0.405-0.516,2.041-2.725,3.157-6.04
		c0.976-2.896-0.476-5.556-2.16-7.079l-0.326-0.295l-0.425-0.111C-248.286,401.679-248.576,401.641-248.862,401.641
		L-248.862,401.641z"/>
</g>
</svg>
